<svg width="109" height="41" viewBox="0 0 109 41" fill="none" xmlns="http://www.w3.org/2000/svg">
<path d="M98.6 14.2L93 12.9L92 12.5L66.3 12.7V25.1L98.6 25.2V14.2Z" fill="white"/>
<path d="M88.1 24C88.4 23 88.3 22 87.8 21.4C87.3 20.8 86.6 20.4 85.7 20.3L68.3 20.1C68.2 20.1 68.1 20 68 20C67.9 19.9 67.9 19.8 68 19.7C68.1 19.5 68.2 19.4 68.4 19.4L85.9 19.2C88 19.1 90.2 17.4 91 15.4L92 12.8C92 12.7 92.1 12.6 92 12.5C90.9 7.39998 86.3 3.59998 80.9 3.59998C75.9 3.59998 71.6 6.79998 70.1 11.3C69.1 10.6 67.9 10.2 66.5 10.3C64.1 10.5 62.2 12.5 61.9 14.9C61.8 15.5 61.9 16.1 62 16.7C58.1 16.8 54.9 20 54.9 24C54.9 24.4 54.9 24.7 55 25.1C55 25.3 55.2 25.4 55.3 25.4H87.4C87.6 25.4 87.8 25.3 87.8 25.1L88.1 24V24Z" fill="#858585"/>
<path d="M93.6 12.8H93.1C93 12.8 92.9 12.9 92.8 13L92.1 15.4C91.8 16.4 91.9 17.4 92.4 18C92.9 18.6 93.6 19 94.5 19.1L98.2 19.3C98.3 19.3 98.4 19.4 98.5 19.4C98.6 19.5 98.6 19.6 98.5 19.7C98.4 19.9 98.3 20 98.1 20L94.3 20.2C92.2 20.3 90 22 89.2 24L89 24.9C88.9 25 89 25.2 89.2 25.2H102.4C102.6 25.2 102.7 25.1 102.7 24.9C102.9 24.1 103.1 23.2 103.1 22.3C103.1 17.1 98.8 12.8 93.6 12.8Z" fill="#858585"/>
<path d="M104.4 30.8C103.9 30.8 103.5 30.4 103.5 29.9C103.5 29.4 103.9 29 104.4 29C104.9 29 105.3 29.4 105.3 29.9C105.3 30.4 104.9 30.8 104.4 30.8ZM104.4 29.2C104 29.2 103.7 29.5 103.7 29.9C103.7 30.3 104 30.6 104.4 30.6C104.8 30.6 105.1 30.3 105.1 29.9C105.1 29.5 104.8 29.2 104.4 29.2ZM104.8 30.4H104.6L104.4 30.1H104.2V30.4H104V29.5H104.5C104.7 29.5 104.8 29.6 104.8 29.8C104.8 29.9 104.7 30 104.6 30.1L104.8 30.4ZM104.5 29.9C104.6 29.9 104.6 29.9 104.6 29.8C104.6 29.7 104.5 29.7 104.5 29.7H104.2V30H104.5V29.9ZM14.8 29H17V35H20.8V36.9H14.8V29ZM23.1 32.9C23.1 30.6 24.9 28.8 27.4 28.8C29.9 28.8 31.6 30.6 31.6 32.9C31.6 35.2 29.8 37 27.3 37C24.9 37 23.1 35.2 23.1 32.9ZM29.4 32.9C29.4 31.7 28.6 30.7 27.4 30.7C26.2 30.7 25.4 31.7 25.4 32.8C25.4 33.9 26.2 34.9 27.4 34.9C28.6 35.1 29.4 34.1 29.4 32.9ZM34.3 33.4V29H36.5V33.4C36.5 34.5 37.1 35.1 38 35.1C38.9 35.1 39.5 34.6 39.5 33.5V29H41.7V33.4C41.7 36 40.2 37.1 38 37.1C35.7 37 34.3 35.9 34.3 33.4ZM45 29H48.1C50.9 29 52.6 30.6 52.6 32.9C52.6 35.2 50.9 36.9 48.1 36.9H45.1V29H45ZM48.1 34.9C49.4 34.9 50.3 34.2 50.3 32.9C50.3 31.6 49.4 30.9 48.1 30.9H47.2V34.9H48.1ZM55.7 29H62V30.9H57.9V32.2H61.6V34H57.9V36.9H55.7V29ZM65.1 29H67.3V35H71.1V36.9H65.1V29ZM76.8 28.9H79L82.4 36.9H80L79.4 35.5H76.3L75.7 36.9H73.4L76.8 28.9ZM78.8 33.8L77.9 31.6L77 33.8H78.8ZM85.2 29H88.9C90.1 29 90.9 29.3 91.5 29.9C92 30.4 92.2 31 92.2 31.7C92.2 32.9 91.6 33.7 90.6 34.1L92.5 36.9H90L88.4 34.5H87.4V36.9H85.2V29ZM88.8 32.8C89.5 32.8 90 32.4 90 31.9C90 31.3 89.5 31 88.8 31H87.4V32.9H88.8V32.8ZM95.3 29H101.7V30.8H97.5V32H101.3V33.8H97.5V35H101.8V36.9H95.3V29ZM10 33.9C9.70002 34.6 9.00002 35.1 8.20002 35.1C7.00002 35.1 6.20002 34.1 6.20002 33C6.20002 31.9 7.00002 30.9 8.20002 30.9C9.10002 30.9 9.80002 31.5 10.1 32.2H12.4C12 30.3 10.4 28.9 8.20002 28.9C5.80002 28.9 3.90002 30.7 3.90002 33C3.90002 35.3 5.70002 37.1 8.10002 37.1C10.2 37.1 11.8 35.7 12.3 33.9H10Z" fill="#636363"/>
</svg>
